<svg width="32" height="32" viewBox="0 0 32 32" fill="none" xmlns="http://www.w3.org/2000/svg">
    <path d="M4 17C4 15.0372 4 14.0557 4.42229 13.2111C4.84458 12.3666 5.62972 11.7777 7.2 10.6L11.2 7.6C13.5111 5.86667 14.6667 5 16 5C17.3333 5 18.4889 5.86667 20.8 7.6L24.8 10.6C26.3703 11.7777 27.1554 12.3666 27.5777 13.2111C28 14.0557 28 15.0372 28 17V22C28 24.8284 28 26.2426 27.1213 27.1213C26.2426 28 24.8284 28 22 28C21.0681 28 20.6022 28 20.2346 27.8478C19.7446 27.6448 19.3552 27.2554 19.1522 26.7654C19 26.3978 19 25.9319 19 25V22.5C19 21.5681 19 21.1022 18.8478 20.7346C18.6448 20.2446 18.2554 19.8552 17.7654 19.6522C17.3978 19.5 16.9319 19.5 16 19.5C15.0681 19.5 14.6022 19.5 14.2346 19.6522C13.7446 19.8552 13.3552 20.2446 13.1522 20.7346C13 21.1022 13 21.5681 13 22.5V25C13 25.9319 13 26.3978 12.8478 26.7654C12.6448 27.2554 12.2554 27.6448 11.7654 27.8478C11.3978 28 10.9319 28 10 28C7.17157 28 5.75736 28 4.87868 27.1213C4 26.2426 4 24.8284 4 22V17Z"
          fill="#00000000" stroke="#707070" stroke-width="1.6" stroke-linecap="round" stroke-linejoin="round"/>
</svg>
