<svg width="32" height="32" viewBox="0 0 32 32" fill="none" xmlns="http://www.w3.org/2000/svg">
    <path d="M19.3333 17H12.6667C10.1744 17 8.9282 17 8 17.5359C7.39192 17.887 6.88697 18.3919 6.5359 19C6 19.9282 6 21.1744 6 23.6667C6 24.9128 6 25.5359 6.26795 26C6.44349 26.304 6.69596 26.5565 7 26.7321C7.4641 27 8.08718 27 9.33333 27H22.6667C23.9128 27 24.5359 27 25 26.7321C25.304 26.5565 25.5565 26.304 25.732 26C26 25.5359 26 24.9128 26 23.6667C26 21.1744 26 19.9282 25.4641 19C25.113 18.3919 24.6081 17.887 24 17.5359C23.0718 17 21.8256 17 19.3333 17Z"
          fill="#00000000" stroke="#707070" stroke-width="1.6" stroke-linecap="round" stroke-linejoin="round"/>
    <path d="M16 14C18.7614 14 21 11.7614 21 9C21 6.23858 18.7614 4 16 4C13.2386 4 11 6.23858 11 9C11 11.7614 13.2386 14 16 14Z"
          fill="#00000000" stroke="#707070" stroke-width="1.6" stroke-linecap="round" stroke-linejoin="round"/>
</svg>
