<svg width="32" height="32" viewBox="0 0 32 32" fill="none" xmlns="http://www.w3.org/2000/svg">
    <path d="M5.88822 15.7372C5.47675 13.5427 5.27102 12.4455 5.87083 11.7227C6.47065 11 7.587 11 9.81971 11H23.1803C25.413 11 26.5294 11 27.1292 11.7227C27.729 12.4455 27.5232 13.5427 27.1118 15.7372L26.2236 20.4743C25.6383 23.5955 25.3457 25.1561 24.2348 26.078C23.1239 27 21.5362 27 18.3606 27H14.6394C11.4638 27 9.87606 27 8.76516 26.078C7.65426 25.1561 7.36165 23.5955 6.77643 20.4743L5.88822 15.7372Z"
          fill="#00000000" stroke="#707070" stroke-width="1.6" stroke-linecap="round" stroke-linejoin="round"/>
    <path d="M11 11C11 10.2121 11.1423 9.43185 11.4187 8.7039C11.6951 7.97595 12.1002 7.31451 12.6109 6.75736C13.1216 6.20021 13.728 5.75825 14.3952 5.45672C15.0625 5.15519 15.7777 5 16.5 5C17.2223 5 17.9375 5.15519 18.6048 5.45672C19.272 5.75825 19.8784 6.20021 20.3891 6.75736C20.8998 7.31451 21.3049 7.97595 21.5813 8.7039C21.8577 9.43185 22 10.2121 22 11"
          stroke="#707070" stroke-width="1.6" stroke-linecap="round" stroke-linejoin="round"/>
</svg>
