<svg width="32" height="32" viewBox="0 0 32 32" fill="none" xmlns="http://www.w3.org/2000/svg">
    <path d="M27.7067 15.8974C27.7523 18.0632 27.1368 20.1606 25.9741 21.9845C24.8114 23.7855 23.1472 25.2218 21.1865 26.0881C19.7731 26.7036 18.2912 27 16.7865 27C16.1482 27 15.5326 26.9544 14.9171 26.8404C12.7741 26.4756 10.8363 25.4953 9.26321 24.0135C8.53368 23.3295 8.48808 22.1668 9.19482 21.4373C9.87876 20.7078 11.0187 20.685 11.771 21.3689C12.8197 22.3492 14.1192 23.0104 15.5326 23.2611C16.9461 23.4891 18.3824 23.3295 19.7047 22.7368C21.0269 22.1668 22.1212 21.2093 22.9192 20.001C23.6943 18.7927 24.0819 17.4021 24.0591 15.9658C24.0363 14.5295 23.6031 13.1389 22.7824 11.9534C21.9845 10.7451 20.8446 9.83316 19.5223 9.30881C18.1772 8.76166 16.7181 8.62487 15.3275 8.92124C13.914 9.19482 12.6373 9.87876 11.6114 10.9047C11.4974 11.0187 11.3834 11.1554 11.2694 11.2694C11.4992 11.4992 11.729 11.729 11.9588 11.9588C13.4119 13.4119 14.1384 14.1384 13.8827 14.7557C13.627 15.3731 12.5996 15.3731 10.5446 15.3731H9C7.11438 15.3731 6.17157 15.3731 5.58579 14.7873C5 14.2015 5 13.2587 5 11.3731V9.40097C5 7.71804 5 6.87658 5.43803 6.57898C5.55347 6.50054 5.68592 6.44653 5.82329 6.42187C6.34452 6.32829 6.92985 6.92663 8.10052 8.12332C8.2829 8.2829 8.48808 8.48808 8.67047 8.67047C8.78446 8.55648 8.89845 8.44249 9.01244 8.3285C10.5627 6.80104 12.4777 5.77513 14.5979 5.34197C16.7181 4.90881 18.8839 5.11399 20.8902 5.91192C22.8736 6.73264 24.5834 8.10052 25.7917 9.87876C27.0228 11.6798 27.6839 13.7544 27.7067 15.8974Z"
          fill="#00000000" stroke="#707070" stroke-width="1.6" stroke-linecap="round" stroke-linejoin="round"/>
</svg>
