<svg width="32" height="32" viewBox="0 0 32 32" fill="none" xmlns="http://www.w3.org/2000/svg">
    <path d="M21.9991 25.001H18.9991V22.001" fill="#B9004C"/>
    <path d="M21.9991 25.001H18.9991V22.001" stroke="#707070" stroke-width="1.6" stroke-linecap="round"
          stroke-linejoin="round"/>
    <path d="M20.001 24.164C20.3477 23.7485 20.766 23.3996 21.2321 23.1373C21.6982 22.8751 22.2028 22.7045 22.7173 22.6354C23.2318 22.5663 23.746 22.6 24.2306 22.7346C24.7152 22.8692 25.1606 23.102 25.5415 23.4198C25.9224 23.7376 26.2313 24.1342 26.4505 24.5868C26.6698 25.0394 26.795 25.5393 26.8192 26.0578C26.8434 26.5763 26.766 27.1034 26.5915 27.6089C26.417 28.1144 26.1487 28.5885 25.802 29.004C24.4996 30.5 22.0016 30.5 20.5035 29"
          stroke="#707070" stroke-width="1.6" stroke-linecap="round" stroke-linejoin="round"/>
    <path d="M4.88822 15.7372C4.47675 13.5427 4.27102 12.4455 4.87083 11.7227C5.47065 11 6.587 11 8.81971 11H22.1803C24.413 11 25.5294 11 26.1292 11.7227C26.729 12.4455 26.5232 13.5427 26.1118 15.7372L25.5 19L25.2051 18.8034C24.4108 18.2738 23.5131 17.9188 22.5713 17.7619L22.5122 17.752C21.5177 17.5863 20.4983 17.6544 19.5347 17.9509L19.3191 18.0172C16.5103 18.8815 14.6904 21.5946 14.9565 24.5214C14.9855 24.84 15.039 25.1559 15.1166 25.4662L15.5 27H13.6394C10.4638 27 8.87606 27 7.76516 26.078C6.65426 25.1561 6.36165 23.5955 5.77643 20.4743L4.88822 15.7372Z"
          fill="#00000000" stroke="#707070" stroke-width="1.6" stroke-linecap="round" stroke-linejoin="round"/>
    <path d="M10 11C10 10.2121 10.1423 9.43185 10.4187 8.7039C10.6951 7.97595 11.1002 7.31451 11.6109 6.75736C12.1216 6.20021 12.728 5.75825 13.3952 5.45672C14.0625 5.15519 14.7777 5 15.5 5C16.2223 5 16.9375 5.15519 17.6048 5.45672C18.272 5.75825 18.8784 6.20021 19.3891 6.75736C19.8998 7.31451 20.3049 7.97595 20.5813 8.7039C20.8577 9.43185 21 10.2121 21 11"
          stroke="#707070" stroke-width="1.6" stroke-linecap="round" stroke-linejoin="round"/>
</svg>
